<?xml version="1.0" encoding="utf-8"?>
<!-- Generator: Adobe Illustrator 25.4.1, SVG Export Plug-In . SVG Version: 6.00 Build 0)  -->
<svg version="1.1"
	 id="svg58" inkscape:version="1.0 (4035a4f, 2020-05-01)" sodipodi:docname="logo.svg" xmlns:cc="http://creativecommons.org/ns#" xmlns:dc="http://purl.org/dc/elements/1.1/" xmlns:inkscape="http://www.inkscape.org/namespaces/inkscape" xmlns:rdf="http://www.w3.org/1999/02/22-rdf-syntax-ns#" xmlns:sodipodi="http://sodipodi.sourceforge.net/DTD/sodipodi-0.dtd" xmlns:svg="http://www.w3.org/2000/svg"
	 xmlns="http://www.w3.org/2000/svg" xmlns:xlink="http://www.w3.org/1999/xlink" x="0px" y="0px" viewBox="0 0 130 25"
	 style="enable-background:new 0 0 130 25;" xml:space="preserve">
<style type="text/css">
	.st0{fill:#5722CC;}
	.st1{fill:#79E5DD;}
	.st2{fill:#FF4800;}
	.st3{opacity:0.3;fill:#79E5DD;enable-background:new    ;}
</style>
<g id="g190" transform="matrix(0.95373055,0,0,0.82935773,-24.204626,32.972226)">
	<path id="path106" class="st0" d="M113.1-20.7h-3.4v-7h3.4V-20.7z M109.6-29.6c0-0.9,0.7-1.5,1.9-1.5c1.1,0,1.9,0.6,1.9,1.5
		c0,0.9-0.7,1.5-1.9,1.5C110.3-28.1,109.6-28.7,109.6-29.6"/>
	<g id="g171">
		<g id="g80" transform="matrix(1.3760598,0,0,1.3974361,196.98304,189.97855)">
			<path id="path82" class="st0" d="M-105.6-153.7v1c0.4,0.4,0.7,0.5,1.1,0.5c0.6,0,1-0.4,1-1s-0.4-1-1-1
				C-104.8-154.2-105.3-154.1-105.6-153.7 M-105.6-151.4v2.4h-2.4v-6.8h2.4v0.6c0.5-0.6,1.1-0.7,1.9-0.7c1.5,0,2.6,1,2.6,2.7
				s-1,2.7-2.6,2.7C-104.5-150.5-105.1-150.7-105.6-151.4"/>
		</g>
		<g id="g84" transform="matrix(1.3760598,0,0,1.3974361,288.51385,206.56639)">
			<path id="path86" class="st0" d="M-160.7-167.5v5h-2.4v-0.6c-0.5,0.6-1.1,0.9-1.9,0.9c-1.4,0-2.2-0.9-2.2-2.1v-3h2.4v2.9
				c0,0.4,0.2,0.6,0.6,0.6c0.4,0,0.6-0.1,1-0.6v-2.9h2.5L-160.7-167.5L-160.7-167.5z"/>
		</g>
		<g id="g88" transform="matrix(1.3760598,0,0,1.3974361,296.03925,166.18119)">
			<path id="path90" class="st0" d="M-165.2-133.7v-5h2.4v0.7c0.4-0.6,1.1-0.9,1.9-0.9v1.9c-1,0-1.7,0.4-1.9,1.1v2.1
				C-162.8-133.7-165.2-133.7-165.2-133.7z"/>
		</g>
		<g id="g92" transform="matrix(1.3760598,0,0,1.3974361,353.98292,189.97855)">
			<path id="path94" class="st0" d="M-199.9-153.7v1c0.4,0.4,0.7,0.5,1.1,0.5c0.6,0,1-0.4,1-1s-0.4-1-1-1
				C-199.2-154.2-199.7-154.1-199.9-153.7 M-199.9-151.4v2.4h-2.4v-6.8h2.4v0.6c0.5-0.6,1.1-0.7,1.9-0.7c1.5,0,2.6,1,2.6,2.7
				s-1,2.7-2.6,2.7C-198.8-150.5-199.4-150.7-199.9-151.4"/>
		</g>
		<path id="path96" class="st0" d="M85.9-29.8h3.4v9.2h-3.4V-29.8z"/>
		<g id="g98" transform="matrix(1.3760598,0,0,1.3974361,469.22999,179.73939)">
			<path id="path100" class="st0" d="M-269.2-145.1c0,1-1,1.9-3.1,1.9c-1.4,0-2.5-0.4-3.2-0.9l1-1.1c0.6,0.4,1.4,0.6,2.4,0.6
				c0.5,0,0.7,0,0.7-0.2c0-0.1-0.2-0.2-0.9-0.2c-1.5-0.1-3-0.6-3-1.7s1.2-1.9,3.1-1.9c1.1,0,2.1,0.2,2.9,0.6l-1,1.2
				c-0.5-0.2-1.2-0.4-2-0.4c-0.5,0-0.9,0-0.9,0.2c0,0.1,0.2,0.1,1,0.2C-270.6-146.7-269.2-146.2-269.2-145.1"/>
		</g>
		<g id="g102" transform="matrix(1.3760598,0,0,1.3974361,525.5396,190.48358)">
			<path id="path104" class="st0" d="M-303-154v3h-2.4v-2.9c0-0.4-0.2-0.6-0.6-0.6s-0.6,0.1-1,0.6v2.9h-2.4v-5v-1.6h2.4v1.7v0.5
				c0.5-0.6,1.1-0.9,1.9-0.9C-303.9-156.3-303-155.4-303-154"/>
		</g>
		<g id="g108" transform="matrix(1.3760598,0,0,1.3974361,578.43988,189.97855)">
			<path id="path110" class="st0" d="M-334.9-153.7v1c0.4,0.4,0.7,0.5,1.1,0.5c0.6,0,1-0.4,1-1s-0.4-1-1-1
				C-334.1-154.2-334.5-154.1-334.9-153.7 M-334.9-151.4v2.4h-2.4v-6.8h2.4v0.6c0.5-0.6,1.1-0.7,1.9-0.7c1.5,0,2.6,1,2.6,2.7
				s-1,2.7-2.6,2.7C-333.7-150.5-334.4-150.7-334.9-151.4"/>
		</g>
	</g>
</g>
<g id="g112" transform="matrix(0.58687978,0,0,0.63104462,85.796268,245.1792)">
	<path id="path114" class="st1" d="M-126.5-383.3h-5.1l0,0h-7c-2.9,0-5.4,2.2-5.4,4.9v9.7c0,2.7,2.4,4.9,5.4,4.9h9.2
		c1.1,0,2.1-0.3,2.8-0.8v-17.9L-126.5-383.3L-126.5-383.3z"/>
</g>
<g id="g116" transform="matrix(0.58687978,0,0,0.63104462,75.045858,130.59279)">
	<path id="path118" class="st2" d="M-110.6-179.4c0,3.7-3.3,6.8-7.5,6.8c-4.1,0-7.5-3-7.5-6.8c0-3.7,3.3-6.8,7.5-6.8
		C-113.9-186.1-110.6-183.1-110.6-179.4"/>
</g>
<g id="g120" transform="matrix(0.58687978,0,0,0.63104462,139.54759,187.33967)">
	<path id="path122" class="st0" d="M-205.5-280.3c0,6.3-5.6,11.3-12.5,11.3c-6.9,0-12.5-5-12.5-11.3s5.6-11.3,12.5-11.3
		C-211.1-291.7-205.5-286.5-205.5-280.3"/>
</g>
<path class="st3" d="M127.6,18.4H97.9c-0.6,0-1-0.4-1-0.9v-10c0-0.6,0.4-0.9,1-0.9h29.8c0.6,0,1,0.4,1,0.9v10
	C128.6,18,128.2,18.4,127.6,18.4z"/>
<g>
	<path class="st1" d="M104.7,11.6c-0.4-0.5-1.1-0.9-2-0.9c-1.5,0-2.6,1-2.6,2.6s1,2.6,2.6,2.6c0.9,0,1.7-0.4,2-0.9v0.8h1.4V9.2h-1.4
		V11.6z M104.6,13.9c-0.4,0.5-1,0.8-1.7,0.8c-1,0-1.6-0.5-1.6-1.4s0.6-1.4,1.6-1.4c0.7,0,1.3,0.3,1.7,0.8V13.9z"/>
	<path class="st1" d="M110,10.7c-1.9,0-3.1,0.9-3.1,2.6c0,1.5,1.2,2.6,3.1,2.6c1.9,0,3.1-0.9,3.1-2.6S111.9,10.7,110,10.7z
		 M110,14.7c-1,0-1.7-0.5-1.7-1.4c0-1,0.8-1.4,1.7-1.4c1,0,1.7,0.5,1.7,1.4C111.8,14.2,111.1,14.7,110,14.7z"/>
	<path class="st1" d="M116.8,14.7c-1,0-1.7-0.5-1.7-1.4c0-1,0.8-1.4,1.7-1.4c0.6,0,1.1,0.2,1.4,0.7l1.3-0.5
		c-0.4-0.7-1.3-1.3-2.6-1.3c-1.9,0-3,1-3,2.6s1.1,2.6,3,2.6c1.4,0,2.3-0.6,2.6-1.4l-1.2-0.5C118,14.5,117.4,14.7,116.8,14.7z"/>
	<path class="st1" d="M123,12.6c-0.9-0.1-1.5-0.1-1.5-0.5c0-0.4,0.8-0.5,1.4-0.5c0.9,0,1.4,0.3,2,0.5l0.6-0.9
		c-0.6-0.4-1.5-0.7-2.5-0.7c-1.8,0-2.6,0.7-2.6,1.5c0,1,1.3,1.4,2.6,1.4c1,0.1,1.5,0.2,1.5,0.5c0,0.3-0.6,0.5-1.4,0.5
		c-1,0-1.9-0.3-2.3-0.7l-0.7,0.8c0.6,0.5,1.7,0.9,3,0.9c1.7,0,2.6-0.7,2.6-1.6C125.5,13.1,124.4,12.7,123,12.6z"/>
</g>
</svg>
