<svg id="a17dd300-7621-4978-a344-c06233c14e82" data-name="Layer 1"
  xmlns="http://www.w3.org/2000/svg" viewBox="0 0 718 500">
  <rect x="0.30042" y="0.39886" width="703.57565" height="450.60114" fill="#e6e6e6"/>
  <rect x="20.419" y="56.91548" width="663.33848" height="171.77293" fill="#fff"/>
  <rect x="185.4182" y="81.72713" width="140.28123" height="8.05267" fill="#e6e6e6"/>
  <rect x="185.4182" y="111.10108" width="216.62475" height="8.05267" fill="#5722cc"/>
  <rect x="185.4182" y="138.77561" width="176.5444" height="8.05267" fill="#e6e6e6"/>
  <rect x="185.4182" y="166.34556" width="103.06376" height="8.05267" fill="#e6e6e6"/>
  <rect x="185.4182" y="193.9155" width="155.54993" height="8.05267" fill="#e6e6e6"/>
  <rect x="121.4805" y="78.86424" width="17.17729" height="17.17729" fill="#e6e6e6"/>
  <rect x="121.4805" y="106.53877" width="17.17729" height="17.17729" fill="#5722cc"/>
  <rect x="121.4805" y="134.2133" width="17.17729" height="17.17729" fill="#e6e6e6"/>
  <rect x="121.4805" y="161.88783" width="17.17729" height="17.17729" fill="#e6e6e6"/>
  <rect x="121.4805" y="189.56235" width="17.17729" height="17.17729" fill="#e6e6e6"/>
  <rect x="533.73553" y="117.9903" width="57.25764" height="57.25764" fill="#e6e6e6"/>
  <rect x="20.419" y="252.54576" width="663.33848" height="171.77293" fill="#fff"/>
  <rect x="151.06361" y="267.81206" width="17.17729" height="17.17729" fill="#e6e6e6"/>
  <rect x="121.4805" y="267.81206" width="17.17729" height="17.17729" fill="#5722cc"/>
  <path d="M568.78582,429.36336a65.04552,65.04552,0,0,0-105.003-9.69993l-4.18616-3.65794a70.59376,70.59376,0,0,1,113.973,10.5262Z" transform="translate(-156.06197 -123.98797)" fill="#e6e6e6"/>
  <path d="M571.40549,501.78181l-4.6134-3.102a65.07767,65.07767,0,0,0,1.99373-69.31643l4.78387-2.83167a70.63741,70.63741,0,0,1-2.1642,75.25012Z" transform="translate(-156.06197 -123.98797)" fill="#5722cc"/>
  <path d="M460.17592,509.52655a70.58952,70.58952,0,0,1-.57926-93.52106l4.18616,3.65794a65.03084,65.03084,0,0,0,.53365,86.15416Z" transform="translate(-156.06197 -123.98797)" fill="#5722cc"/>
  <path d="M512.776,533.04037a70.70886,70.70886,0,0,1-52.6-23.51382l4.14055-3.709a65.04336,65.04336,0,0,0,102.47562-7.1378l4.6134,3.102A70.5538,70.5538,0,0,1,512.776,533.04037Z" transform="translate(-156.06197 -123.98797)" fill="#5722cc"/>
  <rect x="533.73553" y="305.03194" width="57.25764" height="57.25764" fill="#e6e6e6"/>
  <rect x="119.09476" y="342.2494" width="57.25764" height="57.25764" fill="#e6e6e6"/>
  <rect width="703.57565" height="29.89047" fill="#5722cc"/>
  <circle cx="22.21219" cy="15.28159" r="5.53997" fill="#fff"/>
  <circle cx="43.24053" cy="15.28159" r="5.53997" fill="#fff"/>
  <circle cx="64.26886" cy="15.28159" r="5.53997" fill="#fff"/>
</svg>
